<svg fill="none" height="32" viewBox="0 0 32 32" width="32" xmlns="http://www.w3.org/2000/svg" xmlns:xlink="http://www.w3.org/1999/xlink"><mask id="a" height="32" maskUnits="userSpaceOnUse" width="32" x="0" y="0"><path d="m16 32c8.8366 0 16-7.1634 16-16 0-8.83656-7.1634-16-16-16-8.83656 0-16 7.16344-16 16 0 8.8366 7.16344 16 16 16z" fill="#fff"/></mask><g mask="url(#a)"><path d="m16 32c8.8366 0 16-7.1634 16-16 0-8.83656-7.1634-16-16-16-8.83656 0-16 7.16344-16 16 0 8.8366 7.16344 16 16 16z" fill="#a168ab"/><path clip-rule="evenodd" d="m18.8705 8.56c2.0296 0 3.675 1.6454 3.675 3.675v7.1955c0 .4901-.096.9578-.2702 1.3854.0101.04.0219.0795.0341.119.3077.9954.8064 1.8012 1.496 2.4171l-.0001.0001c.0308.0275.0335.0749.006.1057-.0141.0157-.034.0248-.0551.025-1.4346.0147-2.5729-.134-3.415-.4461-.1023-.0379-.2017-.0788-.2981-.1226-.3676.1241-.7623.1914-1.1726.1914h-7.1955c-2.02965 0-3.675-1.6454-3.675-3.675v-7.1955c0-2.0296 1.64535-3.675 3.675-3.675zm-.89 1.92h-5.4355c-1.4497 0-2.625 1.1752-2.625 2.625v5.4355c0 1.4497 1.1753 2.625 2.625 2.625h5.4355c1.4497 0 2.625-1.1753 2.625-2.625v-5.4355c0-1.4498-1.1753-2.625-2.625-2.625zm.0195 4.4c.5302 0 .96.4298.96.96s-.4298.96-.96.96-.96-.4298-.96-.96.4298-.96.96-.96zm-5.44 0c.5302 0 .96.4298.96.96s-.4298.96-.96.96-.96-.4298-.96-.96.4298-.96.96-.96zm2.72 0c.5302 0 .96.4298.96.96s-.4298.96-.96.96-.96-.4298-.96-.96.4298-.96.96-.96z" fill="#fff" fill-rule="evenodd"/></g></svg>